<?xml version="1.0" encoding="utf-8"?>
<!-- Generator: Adobe Illustrator 23.0.2, SVG Export Plug-In . SVG Version: 6.00 Build 0)  -->
<svg version="1.1" id="Layer_1" xmlns="http://www.w3.org/2000/svg" xmlns:xlink="http://www.w3.org/1999/xlink" x="0px" y="0px"
	 viewBox="0 0 91.1 91.1" style="enable-background:new 0 0 91.1 91.1;" xml:space="preserve">
<style type="text/css">
	.st0{display:none;}
	.st1{display:inline;}
</style>
<g id="G_1_">
	<g>
		<path d="M43.8,69.8c-5.7-0.5-10.6-2.9-14.8-7.1c-4.8-4.8-7.1-10.7-7.1-17.5c0-6.9,2.4-12.8,7.3-17.6c4.1-4.1,9-6.5,14.7-7.1v-8.2
			c-17.4,0.9-31.1,15.3-31.1,32.9s13.8,31.9,31.1,32.9V69.8z"/>
		<path d="M47.4,12.3v8c3.5,0.1,6.8,0.8,9.9,2.3c3.1,1.5,6.1,4,9.1,7.4l-5.1,4.9c-3.9-5.2-8.7-7.8-14.3-7.8c-5.1,0-9.3,1.7-12.7,5.2
			c-3.4,3.4-5.1,7.7-5.1,12.9c0,5.3,1.9,9.7,5.7,13.2c3.6,3.2,7.4,4.8,11.6,4.8c3.5,0,6.7-1.2,9.6-3.6c2.8-2.4,4.4-5.3,4.7-8.7H48.8
			v-6.8h19.8v1.6c0,3.6-0.4,6.8-1.3,9.5c-0.8,2.6-2.2,5-4.2,7.2c-4.2,4.7-9.4,7.2-15.7,7.5v8.2c17.4-0.9,31.1-15.3,31.1-32.9
			S64.8,13.3,47.4,12.3z"/>
	</g>
</g>
</svg>
