<?xml version="1.0" encoding="utf-8"?>
<!-- Generator: Adobe Illustrator 23.0.2, SVG Export Plug-In . SVG Version: 6.00 Build 0)  -->
<svg version="1.1" id="Layer_1" xmlns="http://www.w3.org/2000/svg" xmlns:xlink="http://www.w3.org/1999/xlink" x="0px" y="0px"
	 viewBox="0 0 422.7 90.4" style="enable-background:new 0 0 422.7 90.4;" xml:space="preserve">
<style type="text/css">
	.st0{display:none;}
	.st1{display:inline;}
</style>
<g id="text">
	<g>
		<path d="M96.4,30.9v25.4h8.7v4.2H91.9V30.9H96.4z"/>
		<path d="M109.8,45.6c0-4.2,1.5-7.8,4.6-10.7c3-3,6.7-4.5,11-4.5c4.2,0,7.8,1.5,10.8,4.5c3,3,4.6,6.6,4.6,10.9
			c0,4.3-1.5,7.9-4.6,10.8c-3.1,3-6.7,4.5-11.1,4.5c-3.8,0-7.3-1.3-10.3-4C111.4,54.2,109.8,50.3,109.8,45.6z M114.3,45.6
			c0,3.3,1.1,6,3.3,8.1c2.2,2.1,4.7,3.2,7.6,3.2c3.1,0,5.7-1.1,7.9-3.2c2.1-2.2,3.2-4.8,3.2-7.9c0-3.2-1.1-5.8-3.2-7.9
			c-2.1-2.2-4.7-3.2-7.8-3.2c-3.1,0-5.7,1.1-7.8,3.2C115.3,39.9,114.3,42.5,114.3,45.6z"/>
		<path d="M149.5,60.5V30.9h4.4c2,0,3.6,0.1,4.7,0.5c1.2,0.3,2.2,0.8,3,1.6c0.8,0.8,1.5,1.7,2,2.8c0.5,1.1,0.8,2.3,0.8,3.5
			c0,2.1-0.8,3.9-2.4,5.4c1.6,0.5,2.8,1.5,3.7,2.8c0.9,1.3,1.4,2.9,1.4,4.6c0,2.3-0.8,4.3-2.4,5.9c-1,1-2.1,1.7-3.3,2
			c-1.3,0.4-3,0.6-5,0.6H149.5z M154,43.6h1.4c1.7,0,2.9-0.4,3.6-1.1c0.8-0.7,1.2-1.8,1.2-3.2c0-1.4-0.4-2.5-1.2-3.2
			c-0.8-0.7-1.9-1.1-3.4-1.1H154L154,43.6L154,43.6z M154,56.3h2.8c2,0,3.5-0.4,4.4-1.2c1-0.9,1.5-1.9,1.5-3.3
			c0-1.3-0.5-2.3-1.4-3.2c-0.9-0.9-2.6-1.3-5-1.3H154V56.3z"/>
		<path d="M174.1,45.6c0-4.2,1.5-7.8,4.6-10.7c3-3,6.7-4.5,11-4.5c4.2,0,7.8,1.5,10.9,4.5c3,3,4.6,6.6,4.6,10.9
			c0,4.3-1.5,7.9-4.6,10.8c-3.1,3-6.7,4.5-11.1,4.5c-3.8,0-7.3-1.3-10.3-4C175.8,54.2,174.1,50.3,174.1,45.6z M178.7,45.6
			c0,3.3,1.1,6,3.3,8.1c2.2,2.1,4.7,3.2,7.6,3.2c3.1,0,5.7-1.1,7.9-3.2c2.1-2.2,3.2-4.8,3.2-7.9c0-3.2-1.1-5.8-3.2-7.9
			c-2.1-2.2-4.7-3.2-7.8-3.2c-3.1,0-5.7,1.1-7.8,3.2C179.7,39.9,178.7,42.5,178.7,45.6z"/>
		<path d="M212.8,60.5l6.2-31.8l10.2,23l10.5-23l5.6,31.8h-4.6l-2.9-17.9l-8.8,19.2l-8.5-19.3l-3.2,17.9L212.8,60.5L212.8,60.5z"/>
		<path d="M272.2,53.3h-12.7l-3.3,7.2h-4.8L266,29l14.1,31.5h-4.9L272.2,53.3z M270.4,49.1L266,39l-4.6,10.1H270.4z"/>
		<path d="M287,60.5V28.9l21.6,22.6V30.9h4.5v31.4l-21.6-22.5v20.7H287z"/>
		<path d="M331.5,35.1v25.4H327V35.1h-6.8v-4.2h18.1v4.2H331.5z"/>
		<path d="M349.9,30.9v29.6h-4.5V30.9H349.9z"/>
		<path d="M382,32.5v5.3c-2.6-2.2-5.2-3.2-8-3.2c-3,0-5.6,1.1-7.7,3.3c-2.1,2.2-3.1,4.8-3.1,8c0,3.1,1,5.7,3.1,7.9s4.7,3.2,7.7,3.2
			c1.6,0,2.9-0.3,4-0.8c0.6-0.3,1.2-0.6,1.9-1c0.7-0.4,1.4-1,2.1-1.6v5.4c-2.6,1.4-5.2,2.2-8,2.2c-4.2,0-7.8-1.5-10.8-4.4
			c-3-3-4.5-6.6-4.5-10.8c0-3.8,1.2-7.1,3.7-10.1c3.1-3.6,7-5.4,11.9-5.4C377,30.3,379.5,31,382,32.5z"/>
		<path d="M407.5,35.3l-3.6,2.2c-0.7-1.2-1.3-1.9-1.9-2.3c-0.6-0.4-1.5-0.6-2.5-0.6c-1.2,0-2.3,0.3-3.1,1c-0.8,0.7-1.2,1.6-1.2,2.6
			c0,1.4,1.1,2.6,3.2,3.5l3,1.2c2.4,1,4.2,2.2,5.3,3.6s1.7,3.1,1.7,5.2c0,2.7-0.9,5-2.7,6.8c-1.8,1.8-4.1,2.7-6.8,2.7
			c-2.6,0-4.7-0.8-6.4-2.3c-1.6-1.5-2.7-3.7-3.1-6.4l4.5-1c0.2,1.7,0.6,2.9,1.1,3.6c0.9,1.3,2.3,1.9,4,1.9c1.4,0,2.5-0.5,3.5-1.4
			s1.4-2.1,1.4-3.5c0-0.6-0.1-1.1-0.2-1.6c-0.2-0.5-0.4-0.9-0.8-1.3s-0.8-0.8-1.3-1.1c-0.5-0.3-1.2-0.7-1.9-1l-2.9-1.2
			c-4-1.7-6.1-4.2-6.1-7.5c0-2.2,0.9-4.1,2.5-5.6c1.7-1.5,3.8-2.3,6.4-2.3C403,30.3,405.6,32,407.5,35.3z"/>
	</g>
</g>
<g id="G">
	<g>
		<path d="M45.8,69.8c-5.7-0.5-10.6-2.9-14.8-7.1c-4.8-4.8-7.1-10.7-7.1-17.5c0-6.9,2.4-12.8,7.3-17.6c4.1-4.1,9-6.5,14.7-7.1v-8.2
			c-17.4,0.9-31.1,15.3-31.1,32.9s13.8,31.9,31.1,32.9V69.8z"/>
		<path d="M49.4,12.3v8c3.5,0.1,6.8,0.8,9.9,2.3c3.1,1.5,6.1,4,9.1,7.4l-5.1,4.9c-3.9-5.2-8.7-7.8-14.3-7.8c-5.1,0-9.3,1.7-12.7,5.2
			c-3.4,3.4-5.1,7.7-5.1,12.9c0,5.3,1.9,9.7,5.7,13.2c3.6,3.2,7.4,4.8,11.6,4.8c3.5,0,6.7-1.2,9.6-3.6c2.8-2.4,4.4-5.3,4.7-8.7H50.8
			v-6.8h19.8v1.6c0,3.6-0.4,6.8-1.3,9.5c-0.8,2.6-2.2,5-4.2,7.2c-4.2,4.7-9.4,7.2-15.7,7.5v8.2c17.4-0.9,31.1-15.3,31.1-32.9
			S66.8,13.3,49.4,12.3z"/>
	</g>
</g>
<g id="half-left" class="st0">
	<path class="st1" d="M14.7,45.2c0,17.6,13.8,31.9,31.1,32.9V12.3C28.4,13.3,14.7,27.6,14.7,45.2z"/>
</g>
<g id="half-right" class="st0">
	<path class="st1" d="M80.5,45.2c0-17.6-13.8-31.9-31.1-32.9v65.8C66.8,77.2,80.5,62.8,80.5,45.2z"/>
</g>
</svg>
